<svg width="236" height="70" viewBox="0 0 236 70" fill="none" xmlns="http://www.w3.org/2000/svg">
<g clip-path="url(#clip0_253_812)">
<path d="M66.9738 32.5526C66.9738 50.5308 51.9812 65.1051 33.4869 65.1051C14.9926 65.1051 0 50.5308 0 32.5526C0 14.5743 14.9926 0 33.4869 0C51.9812 0 66.9738 14.5743 66.9738 32.5526Z" fill="#D9EFF7"/>
<path d="M31.8278 45.6671C31.8278 44.531 31.6878 43.7694 31.44 42.9559C31.1922 42.1424 30.7505 41.3937 30.0826 40.7094C29.4146 40.0251 28.4773 39.328 27.2707 38.6566C26.0641 37.9852 24.6098 37.3397 22.5844 36.565C20.559 35.7904 18.4151 34.8092 16.5082 33.7763C14.6014 32.7435 12.9208 31.5557 11.4664 30.1742C10.0119 28.7927 8.87 27.166 8.04045 25.3327C7.2109 23.4993 6.8123 21.3303 6.8123 18.9418C6.8123 16.5534 7.24323 14.4747 8.10509 12.551C8.96696 10.6273 10.1735 8.97474 11.7249 7.59327C13.2763 6.21181 15.0969 5.12732 17.2193 4.37849C19.3416 3.62967 21.2269 3.25526 24.2327 3.25526C27.2384 3.25526 30.729 4.00408 33.3145 5.50173C35.9001 6.99938 37.8932 9.05218 39.326 11.6602C40.7589 14.2682 41.4915 17.2505 41.4915 20.6073C41.4915 23.9641 31.8602 22.2599 31.8602 20.6073C31.8602 18.9548 31.5585 17.5217 30.9875 16.2693C30.4165 15.0169 29.5547 14.0099 28.4019 13.2869C27.2492 12.5639 25.784 12.2024 24.0711 12.2024C22.3581 12.2024 20.99 12.5252 19.8695 13.132C18.749 13.7388 17.9088 14.5522 17.3486 15.5721C16.7883 16.5921 16.5082 17.8702 16.5082 18.9806C16.5082 20.0909 16.6914 20.8009 17.09 21.5756C17.4886 22.3503 18.1027 23.0733 18.8999 23.7446C19.6971 24.416 20.6775 25.0486 21.841 25.6425C23.0045 26.2364 23.8341 26.6367 25.881 27.3855C27.9279 28.1343 30.6859 29.3608 32.6358 30.5228C34.5858 31.6848 36.2341 32.9888 37.5484 34.4348C38.8628 35.8808 39.8539 37.5204 40.5219 39.3538C41.1898 41.1871 41.5238 43.2012 41.5238 45.5897C41.5238 47.9782 41.1252 50.2376 40.3279 52.1742C39.5307 54.1108 38.378 55.7505 36.8697 57.0932C35.3615 58.4359 33.5623 59.4558 31.4723 60.153C29.3823 60.8502 26.9152 61.1988 24.4589 61.1988C22.0026 61.1988 19.8372 60.8502 17.5748 60.1143C15.3124 59.3784 13.2439 58.2422 11.4017 56.7446C9.55947 55.2469 8.10509 53.3361 7.00622 51.0122C5.90734 48.6883 5.35791 45.9383 5.35791 42.7622C5.35791 39.5862 15.0862 41.0064 15.0862 42.7622C15.0862 44.5181 15.3124 46.0028 15.7649 47.2164C16.2174 48.43 16.8422 49.4112 17.6718 50.1601C18.5013 50.9089 19.4924 51.4512 20.6452 51.7868C21.7979 52.1225 22.9291 52.2904 24.4589 52.2904C25.9887 52.2904 27.5077 52.0063 28.5959 51.4383C29.684 50.8702 30.4919 50.0827 31.0198 49.0756C31.5477 48.0685 31.8278 46.8033 31.8278 45.6671Z" fill="#4741A6"/>
<path d="M70 50.4685C70 61.2554 61.0044 70 49.9078 70C38.8113 70 29.8157 61.2554 29.8157 50.4685C29.8157 39.6815 38.8113 30.9369 49.9078 30.9369C61.0044 30.9369 70 39.6815 70 50.4685Z" fill="#F9CE69"/>
<path d="M111.422 42.2109C111.422 41.5078 111.312 40.8828 111.094 40.3359C110.891 39.7891 110.523 39.2891 109.992 38.8359C109.461 38.3828 108.711 37.9453 107.742 37.5234C106.789 37.0859 105.57 36.6406 104.086 36.1875C102.461 35.6875 100.961 35.1328 99.5859 34.5234C98.2266 33.8984 97.0391 33.1797 96.0234 32.3672C95.0078 31.5391 94.2188 30.5938 93.6562 29.5312C93.0938 28.4531 92.8125 27.2109 92.8125 25.8047C92.8125 24.4141 93.1016 23.1484 93.6797 22.0078C94.2734 20.8672 95.1094 19.8828 96.1875 19.0547C97.2812 18.2109 98.5703 17.5625 100.055 17.1094C101.539 16.6406 103.18 16.4062 104.977 16.4062C107.508 16.4062 109.688 16.875 111.516 17.8125C113.359 18.75 114.773 20.0078 115.758 21.5859C116.758 23.1641 117.258 24.9062 117.258 26.8125H111.422C111.422 25.6875 111.18 24.6953 110.695 23.8359C110.227 22.9609 109.508 22.2734 108.539 21.7734C107.586 21.2734 106.375 21.0234 104.906 21.0234C103.516 21.0234 102.359 21.2344 101.438 21.6562C100.516 22.0781 99.8281 22.6484 99.375 23.3672C98.9219 24.0859 98.6953 24.8984 98.6953 25.8047C98.6953 26.4453 98.8438 27.0312 99.1406 27.5625C99.4375 28.0781 99.8906 28.5625 100.5 29.0156C101.109 29.4531 101.875 29.8672 102.797 30.2578C103.719 30.6484 104.805 31.0234 106.055 31.3828C107.945 31.9453 109.594 32.5703 111 33.2578C112.406 33.9297 113.578 34.6953 114.516 35.5547C115.453 36.4141 116.156 37.3906 116.625 38.4844C117.094 39.5625 117.328 40.7891 117.328 42.1641C117.328 43.6016 117.039 44.8984 116.461 46.0547C115.883 47.1953 115.055 48.1719 113.977 48.9844C112.914 49.7812 111.633 50.3984 110.133 50.8359C108.648 51.2578 106.992 51.4688 105.164 51.4688C103.523 51.4688 101.906 51.25 100.312 50.8125C98.7344 50.375 97.2969 49.7109 96 48.8203C94.7031 47.9141 93.6719 46.7891 92.9062 45.4453C92.1406 44.0859 91.7578 42.5 91.7578 40.6875H97.6406C97.6406 41.7969 97.8281 42.7422 98.2031 43.5234C98.5938 44.3047 99.1328 44.9453 99.8203 45.4453C100.508 45.9297 101.305 46.2891 102.211 46.5234C103.133 46.7578 104.117 46.875 105.164 46.875C106.539 46.875 107.688 46.6797 108.609 46.2891C109.547 45.8984 110.25 45.3516 110.719 44.6484C111.188 43.9453 111.422 43.1328 111.422 42.2109ZM120.891 38.6016V38.0625C120.891 36.2344 121.156 34.5391 121.688 32.9766C122.219 31.3984 122.984 30.0312 123.984 28.875C125 27.7031 126.234 26.7969 127.688 26.1562C129.156 25.5 130.812 25.1719 132.656 25.1719C134.516 25.1719 136.172 25.5 137.625 26.1562C139.094 26.7969 140.336 27.7031 141.352 28.875C142.367 30.0312 143.141 31.3984 143.672 32.9766C144.203 34.5391 144.469 36.2344 144.469 38.0625V38.6016C144.469 40.4297 144.203 42.125 143.672 43.6875C143.141 45.25 142.367 46.6172 141.352 47.7891C140.336 48.9453 139.102 49.8516 137.648 50.5078C136.195 51.1484 134.547 51.4688 132.703 51.4688C130.844 51.4688 129.18 51.1484 127.711 50.5078C126.258 49.8516 125.023 48.9453 124.008 47.7891C122.992 46.6172 122.219 45.25 121.688 43.6875C121.156 42.125 120.891 40.4297 120.891 38.6016ZM126.539 38.0625V38.6016C126.539 39.7422 126.656 40.8203 126.891 41.8359C127.125 42.8516 127.492 43.7422 127.992 44.5078C128.492 45.2734 129.133 45.875 129.914 46.3125C130.695 46.75 131.625 46.9688 132.703 46.9688C133.75 46.9688 134.656 46.75 135.422 46.3125C136.203 45.875 136.844 45.2734 137.344 44.5078C137.844 43.7422 138.211 42.8516 138.445 41.8359C138.695 40.8203 138.82 39.7422 138.82 38.6016V38.0625C138.82 36.9375 138.695 35.875 138.445 34.875C138.211 33.8594 137.836 32.9609 137.32 32.1797C136.82 31.3984 136.18 30.7891 135.398 30.3516C134.633 29.8984 133.719 29.6719 132.656 29.6719C131.594 29.6719 130.672 29.8984 129.891 30.3516C129.125 30.7891 128.492 31.3984 127.992 32.1797C127.492 32.9609 127.125 33.8594 126.891 34.875C126.656 35.875 126.539 36.9375 126.539 38.0625ZM159.562 46.9688C160.484 46.9688 161.312 46.7891 162.047 46.4297C162.797 46.0547 163.398 45.5391 163.852 44.8828C164.32 44.2266 164.578 43.4688 164.625 42.6094H169.945C169.914 44.25 169.43 45.7422 168.492 47.0859C167.555 48.4297 166.312 49.5 164.766 50.2969C163.219 51.0781 161.508 51.4688 159.633 51.4688C157.695 51.4688 156.008 51.1406 154.57 50.4844C153.133 49.8125 151.938 48.8906 150.984 47.7188C150.031 46.5469 149.312 45.1953 148.828 43.6641C148.359 42.1328 148.125 40.4922 148.125 38.7422V37.9219C148.125 36.1719 148.359 34.5312 148.828 33C149.312 31.4531 150.031 30.0938 150.984 28.9219C151.938 27.75 153.133 26.8359 154.57 26.1797C156.008 25.5078 157.688 25.1719 159.609 25.1719C161.641 25.1719 163.422 25.5781 164.953 26.3906C166.484 27.1875 167.688 28.3047 168.562 29.7422C169.453 31.1641 169.914 32.8203 169.945 34.7109H164.625C164.578 33.7734 164.344 32.9297 163.922 32.1797C163.516 31.4141 162.938 30.8047 162.188 30.3516C161.453 29.8984 160.57 29.6719 159.539 29.6719C158.398 29.6719 157.453 29.9062 156.703 30.375C155.953 30.8281 155.367 31.4531 154.945 32.25C154.523 33.0312 154.219 33.9141 154.031 34.8984C153.859 35.8672 153.773 36.875 153.773 37.9219V38.7422C153.773 39.7891 153.859 40.8047 154.031 41.7891C154.203 42.7734 154.5 43.6562 154.922 44.4375C155.359 45.2031 155.953 45.8203 156.703 46.2891C157.453 46.7422 158.406 46.9688 159.562 46.9688ZM180.328 25.6406V51H174.656V25.6406H180.328ZM174.281 18.9844C174.281 18.125 174.562 17.4141 175.125 16.8516C175.703 16.2734 176.5 15.9844 177.516 15.9844C178.516 15.9844 179.305 16.2734 179.883 16.8516C180.461 17.4141 180.75 18.125 180.75 18.9844C180.75 19.8281 180.461 20.5312 179.883 21.0938C179.305 21.6562 178.516 21.9375 177.516 21.9375C176.5 21.9375 175.703 21.6562 175.125 21.0938C174.562 20.5312 174.281 19.8281 174.281 18.9844ZM201.773 45.0234V25.6406H207.445V51H202.102L201.773 45.0234ZM202.57 39.75L204.469 39.7031C204.469 41.4062 204.281 42.9766 203.906 44.4141C203.531 45.8359 202.953 47.0781 202.172 48.1406C201.391 49.1875 200.391 50.0078 199.172 50.6016C197.953 51.1797 196.492 51.4688 194.789 51.4688C193.555 51.4688 192.422 51.2891 191.391 50.9297C190.359 50.5703 189.469 50.0156 188.719 49.2656C187.984 48.5156 187.414 47.5391 187.008 46.3359C186.602 45.1328 186.398 43.6953 186.398 42.0234V25.6406H192.047V42.0703C192.047 42.9922 192.156 43.7656 192.375 44.3906C192.594 45 192.891 45.4922 193.266 45.8672C193.641 46.2422 194.078 46.5078 194.578 46.6641C195.078 46.8203 195.609 46.8984 196.172 46.8984C197.781 46.8984 199.047 46.5859 199.969 45.9609C200.906 45.3203 201.57 44.4609 201.961 43.3828C202.367 42.3047 202.57 41.0938 202.57 39.75ZM227.461 44.1328C227.461 43.5703 227.32 43.0625 227.039 42.6094C226.758 42.1406 226.219 41.7188 225.422 41.3438C224.641 40.9688 223.484 40.625 221.953 40.3125C220.609 40.0156 219.375 39.6641 218.25 39.2578C217.141 38.8359 216.188 38.3281 215.391 37.7344C214.594 37.1406 213.977 36.4375 213.539 35.625C213.102 34.8125 212.883 33.875 212.883 32.8125C212.883 31.7812 213.109 30.8047 213.562 29.8828C214.016 28.9609 214.664 28.1484 215.508 27.4453C216.352 26.7422 217.375 26.1875 218.578 25.7812C219.797 25.375 221.156 25.1719 222.656 25.1719C224.781 25.1719 226.602 25.5312 228.117 26.25C229.648 26.9531 230.82 27.9141 231.633 29.1328C232.445 30.3359 232.852 31.6953 232.852 33.2109H227.203C227.203 32.5391 227.031 31.9141 226.688 31.3359C226.359 30.7422 225.859 30.2656 225.188 29.9062C224.516 29.5312 223.672 29.3438 222.656 29.3438C221.688 29.3438 220.883 29.5 220.242 29.8125C219.617 30.1094 219.148 30.5 218.836 30.9844C218.539 31.4688 218.391 32 218.391 32.5781C218.391 33 218.469 33.3828 218.625 33.7266C218.797 34.0547 219.078 34.3594 219.469 34.6406C219.859 34.9062 220.391 35.1562 221.062 35.3906C221.75 35.625 222.609 35.8516 223.641 36.0703C225.578 36.4766 227.242 37 228.633 37.6406C230.039 38.2656 231.117 39.0781 231.867 40.0781C232.617 41.0625 232.992 42.3125 232.992 43.8281C232.992 44.9531 232.75 45.9844 232.266 46.9219C231.797 47.8438 231.109 48.6484 230.203 49.3359C229.297 50.0078 228.211 50.5312 226.945 50.9062C225.695 51.2812 224.289 51.4688 222.727 51.4688C220.43 51.4688 218.484 51.0625 216.891 50.25C215.297 49.4219 214.086 48.3672 213.258 47.0859C212.445 45.7891 212.039 44.4453 212.039 43.0547H217.5C217.562 44.1016 217.852 44.9375 218.367 45.5625C218.898 46.1719 219.555 46.6172 220.336 46.8984C221.133 47.1641 221.953 47.2969 222.797 47.2969C223.812 47.2969 224.664 47.1641 225.352 46.8984C226.039 46.6172 226.562 46.2422 226.922 45.7734C227.281 45.2891 227.461 44.7422 227.461 44.1328Z" fill="#9BBBFC"/>
</g>
<defs>
<clipPath id="clip0_253_812">
<rect width="236" height="70" fill="white"/>
</clipPath>
</defs>
</svg>
