<svg width="100" height="100" viewBox="0 0 100 100" fill="none" xmlns="http://www.w3.org/2000/svg">
<path d="M95.6769 46.5036C95.6769 72.1869 74.2589 93.0073 47.8385 93.0073C21.418 93.0073 0 72.1869 0 46.5036C0 20.8204 21.418 0 47.8385 0C74.2589 0 95.6769 20.8204 95.6769 46.5036Z" fill="white" fill-opacity="0.5"/>
<path d="M45.4683 65.2388C45.4683 63.6157 45.2683 62.5277 44.9143 61.3655C44.5603 60.2034 43.9293 59.1339 42.9751 58.1563C42.0208 57.1787 40.6819 56.1828 38.9582 55.2237C37.2345 54.2646 35.1568 53.3424 32.2634 52.2358C29.37 51.1291 26.3073 49.7274 23.5832 48.2519C20.8591 46.7764 18.4583 45.0796 16.3805 43.106C14.3027 41.1325 12.6714 38.8086 11.4864 36.1895C10.3013 33.5705 9.73186 30.4719 9.73186 27.0598C9.73186 23.6476 10.3475 20.6782 11.5787 17.93C12.8099 15.1819 14.5336 12.8211 16.7499 10.8475C18.9661 8.87401 21.5671 7.32474 24.599 6.25499C27.6309 5.18524 30.3242 4.65036 34.6181 4.65036C38.912 4.65036 43.8985 5.72011 47.5922 7.85961C51.2859 9.99911 54.1331 12.9317 56.18 16.6574C58.227 20.3831 59.2735 24.6436 59.2735 29.439C59.2735 34.2345 45.5145 31.7999 45.5145 29.439C45.5145 27.0782 45.0836 25.031 44.2679 23.2419C43.4521 21.4527 42.221 20.0142 40.5742 18.9813C38.9274 17.9485 36.8343 17.432 34.3873 17.432C31.9402 17.432 29.9857 17.8931 28.385 18.76C26.7843 19.6269 25.584 20.7888 24.7837 22.2459C23.9833 23.703 23.5832 25.5289 23.5832 27.1151C23.5832 28.7013 23.8448 29.7156 24.4143 30.8223C24.9838 31.929 25.861 32.9618 26.9999 33.9209C28.1388 34.88 29.5393 35.7838 31.2014 36.6322C32.8636 37.4806 34.0486 38.0524 36.9728 39.1221C39.897 40.1919 43.8369 41.944 46.6226 43.604C49.4083 45.264 51.763 47.1268 53.6406 49.1925C55.5183 51.2583 56.9342 53.6006 57.8884 56.2197C58.8426 58.8387 59.3197 61.716 59.3197 65.1281C59.3197 68.5402 58.7502 71.7679 57.6114 74.5345C56.4725 77.3011 54.8257 79.6435 52.671 81.5617C50.5164 83.4799 47.9462 84.9369 44.9605 85.9329C41.9747 86.9289 38.4503 87.4269 34.9413 87.4269C31.4323 87.4269 28.3389 86.9289 25.1069 85.8776C21.8748 84.8262 18.9199 83.2032 16.2882 81.0637C13.6564 78.9242 11.5787 76.1945 10.0089 72.8746C8.43906 69.5547 7.65415 65.6261 7.65415 61.0889C7.65415 56.5517 21.5517 58.5805 21.5517 61.0889C21.5517 63.5973 21.8749 65.7183 22.5213 67.452C23.1677 69.1858 24.0603 70.5875 25.2454 71.6573C26.4305 72.727 27.8463 73.5017 29.4931 73.9812C31.1399 74.4608 32.7559 74.7005 34.9413 74.7005C37.1267 74.7005 39.2968 74.2948 40.8512 73.4832C42.4057 72.6717 43.5599 71.5467 44.3141 70.108C45.0682 68.6693 45.4683 66.8618 45.4683 65.2388Z" fill="white" fill-opacity="0.8"/>
<path d="M100 72.0978C100 87.5078 87.1492 100 71.2969 100C55.4446 100 42.5938 87.5078 42.5938 72.0978C42.5938 56.6879 55.4446 44.1956 71.2969 44.1956C87.1492 44.1956 100 56.6879 100 72.0978Z" fill="white"/>
</svg>
