<svg width="500" height="149" viewBox="0 0 500 149" fill="none" xmlns="http://www.w3.org/2000/svg">
<g clip-path="url(#clip0_371_3393)">
<mask id="mask0_371_3393" style="mask-type:luminance" maskUnits="userSpaceOnUse" x="0" y="0" width="500" height="149">
<path d="M500 0.5H0V148.5H500V0.5Z" fill="white"/>
</mask>
<g mask="url(#mask0_371_3393)">
<path d="M141.894 69.3255C141.894 107.337 110.13 138.151 70.9468 138.151C31.764 138.151 0 107.337 0 69.3255C0 31.3142 31.764 0.5 70.9468 0.5C110.13 0.5 141.894 31.3142 141.894 69.3255Z" fill="white" fill-opacity="0.5"/>
<path d="M67.4318 97.0531C67.4318 94.651 67.1352 93.0408 66.6102 91.3208C66.0852 89.6008 65.1494 88.0179 63.7344 86.5711C62.3191 85.1243 60.3333 83.6504 57.777 82.2309C55.2206 80.8113 52.1395 79.4466 47.8484 77.8086C43.5573 76.1709 39.0151 74.0964 34.9751 71.9125C30.9352 69.7289 27.3746 67.2175 24.2933 64.2967C21.2117 61.3758 18.7924 57.9365 17.0349 54.0603C15.2774 50.184 14.4329 45.5981 14.4329 40.5481C14.4329 35.4984 15.3459 31.1034 17.1719 27.0362C18.9979 22.9689 21.5541 19.4749 24.8409 16.5541C28.1278 13.6333 31.985 11.3404 36.4816 9.75715C40.978 8.17393 44.9723 7.38232 51.3405 7.38232C57.7085 7.38232 65.1039 8.96554 70.5816 12.132C76.0596 15.2985 80.2823 19.6387 83.3179 25.1528C86.3537 30.6668 87.9058 36.9723 87.9058 44.0695C87.9058 51.1667 67.5005 47.5636 67.5005 44.0695C67.5005 40.5756 66.8613 37.5457 65.6515 34.8977C64.4418 32.2498 62.616 30.1207 60.1736 28.5921C57.7314 27.0634 54.6272 26.2991 50.9982 26.2991C47.3689 26.2991 44.4704 26.9816 42.0965 28.2646C39.7225 29.5475 37.9424 31.2673 36.7556 33.4236C35.5685 35.5802 34.9751 38.2825 34.9751 40.6302C34.9751 42.9777 35.3632 44.4788 36.2077 46.1168C37.0522 47.7547 38.3532 49.2833 40.0422 50.7026C41.7312 52.1222 43.8083 53.4597 46.2734 54.7153C48.7384 55.971 50.496 56.8174 54.8327 58.4005C59.1693 59.9837 65.0126 62.5769 69.1437 65.0337C73.2751 67.4905 76.7672 70.2475 79.5518 73.3048C82.3365 76.362 84.4363 79.8286 85.8515 83.705C87.2666 87.5811 87.9742 91.8394 87.9742 96.8894C87.9742 101.939 87.1297 106.716 85.4405 110.811C83.7515 114.905 81.3094 118.372 78.1138 121.211C74.9185 124.05 71.1066 126.206 66.6787 127.68C62.2507 129.154 57.0238 129.892 51.8198 129.892C46.6157 129.892 42.028 129.154 37.2348 127.599C32.4416 126.043 28.0592 123.64 24.1562 120.474C20.2532 117.308 17.1719 113.268 14.8437 108.354C12.5156 103.441 11.3516 97.6265 11.3516 90.9113C11.3516 84.1963 31.9623 87.199 31.9623 90.9113C31.9623 94.6238 32.4416 97.7628 33.4003 100.329C34.359 102.895 35.6827 104.969 37.4403 106.553C39.1977 108.136 41.2975 109.282 43.7399 109.992C46.1821 110.702 48.5787 111.057 51.8198 111.057C55.0609 111.057 58.2791 110.456 60.5846 109.255C62.8899 108.054 64.6015 106.389 65.72 104.26C66.8384 102.13 67.4318 99.4553 67.4318 97.0531Z" fill="white" fill-opacity="0.8"/>
<path d="M148.305 107.205C148.305 130.012 129.247 148.5 105.737 148.5C82.2273 148.5 63.1688 130.012 63.1688 107.205C63.1688 84.3983 82.2273 65.9097 105.737 65.9097C129.247 65.9097 148.305 84.3983 148.305 107.205Z" fill="white"/>
<path d="M236.064 89.7457C236.064 88.2592 235.83 86.9377 235.369 85.7814C234.939 84.6253 234.159 83.5682 233.034 82.61C231.909 81.652 230.32 80.727 228.267 79.835C226.248 78.91 223.665 77.9685 220.521 77.0105C217.078 75.9534 213.9 74.7806 210.987 73.4921C208.107 72.1707 205.591 70.6512 203.439 68.9333C201.288 67.1825 199.616 65.1839 198.424 62.9372C197.233 60.6578 196.637 58.0314 196.637 55.0583C196.637 52.1182 197.249 49.4422 198.474 47.0306C199.732 44.619 201.503 42.5377 203.787 40.7869C206.104 39.0029 208.835 37.632 211.981 36.674C215.125 35.6828 218.602 35.1872 222.409 35.1872C227.771 35.1872 232.39 36.1784 236.263 38.1605C240.167 40.1427 243.163 42.802 245.25 46.1386C247.369 49.4753 248.428 53.1586 248.428 57.1891H236.064C236.064 54.8105 235.551 52.7127 234.523 50.8957C233.532 49.0457 232.008 47.5922 229.955 46.535C227.936 45.4779 225.371 44.9493 222.258 44.9493C219.314 44.9493 216.862 45.3954 214.911 46.2872C212.958 47.1792 211.5 48.385 210.54 49.9048C209.58 51.4243 209.1 53.1422 209.1 55.0583C209.1 56.4127 209.415 57.6515 210.044 58.7748C210.673 59.8649 211.633 60.8891 212.924 61.8471C214.214 62.7721 215.837 63.6476 217.79 64.4735C219.744 65.2993 222.044 66.0921 224.693 66.852C228.697 68.0413 232.191 69.3627 235.169 70.8163C238.148 72.2369 240.631 73.8556 242.619 75.6726C244.604 77.4896 246.093 79.5542 247.087 81.8668C248.08 84.1462 248.576 86.7396 248.576 89.6468C248.576 92.6861 247.964 95.4279 246.739 97.8726C245.515 100.284 243.761 102.349 241.477 104.067C239.225 105.751 236.511 107.056 233.333 107.981C230.186 108.873 226.678 109.32 222.805 109.32C219.328 109.32 215.903 108.857 212.525 107.932C209.183 107.007 206.137 105.603 203.39 103.72C200.642 101.804 198.457 99.4253 196.835 96.5842C195.213 93.71 194.402 90.357 194.402 86.5248H206.866C206.866 88.8704 207.263 90.869 208.057 92.5207C208.885 94.1726 210.027 95.527 211.484 96.5842C212.941 97.6083 214.629 98.3682 216.549 98.8636C218.502 99.3592 220.587 99.607 222.805 99.607C225.718 99.607 228.153 99.194 230.104 98.3682C232.091 97.5421 233.58 96.3861 234.574 94.8993C235.568 93.4127 236.064 91.6949 236.064 89.7457ZM256.125 82.1146V80.9748C256.125 77.1097 256.686 73.5253 257.814 70.2218C258.939 66.885 260.559 63.9944 262.678 61.5498C264.83 59.0721 267.445 57.1561 270.525 55.8015C273.636 54.4141 277.144 53.7204 281.051 53.7204C284.992 53.7204 288.5 54.4141 291.578 55.8015C294.691 57.1561 297.322 59.0721 299.475 61.5498C301.625 63.9944 303.265 66.885 304.39 70.2218C305.515 73.5253 306.078 77.1097 306.078 80.9748V82.1146C306.078 85.9798 305.515 89.5641 304.39 92.8677C303.265 96.1712 301.625 99.0619 299.475 101.54C297.322 103.984 294.708 105.9 291.627 107.288C288.549 108.642 285.057 109.32 281.15 109.32C277.212 109.32 273.686 108.642 270.574 107.288C267.496 105.9 264.879 103.984 262.729 101.54C260.576 99.0619 258.939 96.1712 257.814 92.8677C256.686 89.5641 256.125 85.9798 256.125 82.1146ZM268.091 80.9748V82.1146C268.091 84.5262 268.339 86.8056 268.837 88.9529C269.333 91.1003 270.11 92.9833 271.169 94.602C272.229 96.2207 273.587 97.4927 275.242 98.4177C276.896 99.3427 278.867 99.8053 281.15 99.8053C283.369 99.8053 285.288 99.3427 286.911 98.4177C288.566 97.4927 289.924 96.2207 290.983 94.602C292.042 92.9833 292.82 91.1003 293.316 88.9529C293.845 86.8056 294.11 84.5262 294.11 82.1146V80.9748C294.11 78.5962 293.845 76.3498 293.316 74.2355C292.82 72.0883 292.025 70.1886 290.932 68.5369C289.873 66.885 288.517 65.5968 286.86 64.6718C285.239 63.7136 283.303 63.2347 281.051 63.2347C278.801 63.2347 276.847 63.7136 275.193 64.6718C273.57 65.5968 272.229 66.885 271.169 68.5369C270.11 70.1886 269.333 72.0883 268.837 74.2355C268.339 76.3498 268.091 78.5962 268.091 80.9748ZM338.055 99.8053C340.008 99.8053 341.763 99.4253 343.32 98.6655C344.909 97.8726 346.182 96.7825 347.144 95.3949C348.136 94.0075 348.682 92.4053 348.782 90.5883H360.053C359.987 94.057 358.962 97.2119 356.975 100.053C354.989 102.894 352.356 105.157 349.081 106.842C345.803 108.494 342.178 109.32 338.205 109.32C334.1 109.32 330.525 108.626 327.479 107.238C324.434 105.818 321.903 103.869 319.881 101.391C317.862 98.9133 316.339 96.0556 315.314 92.8182C314.32 89.5806 313.824 86.1119 313.824 82.4119V80.6776C313.824 76.9776 314.32 73.5086 315.314 70.2712C316.339 67.0007 317.862 64.1267 319.881 61.649C321.903 59.1712 324.434 57.2386 327.479 55.8512C330.525 54.4306 334.085 53.7204 338.155 53.7204C342.46 53.7204 346.233 54.5792 349.477 56.2971C352.72 57.982 355.271 60.344 357.123 63.3833C359.011 66.3896 359.987 69.8913 360.053 73.8886H348.782C348.682 71.9064 348.186 70.1226 347.292 68.5369C346.432 66.9182 345.208 65.6298 343.619 64.6718C342.061 63.7136 340.191 63.2347 338.006 63.2347C335.589 63.2347 333.587 63.7301 331.998 64.7212C330.409 65.6792 329.167 67.0007 328.273 68.6855C327.379 70.3372 326.735 72.2039 326.337 74.285C325.972 76.3333 325.79 78.4641 325.79 80.6776V82.4119C325.79 84.6253 325.972 86.7726 326.337 88.8539C326.701 90.935 327.33 92.8015 328.225 94.4534C329.15 96.0721 330.409 97.377 331.998 98.3682C333.587 99.3262 335.606 99.8053 338.055 99.8053ZM382.051 54.7114V108.328H370.034V54.7114H382.051ZM369.239 40.6383C369.239 38.8212 369.835 37.3182 371.028 36.1289C372.252 34.9064 373.941 34.2954 376.093 34.2954C378.212 34.2954 379.883 34.9064 381.108 36.1289C382.333 37.3182 382.945 38.8212 382.945 40.6383C382.945 42.4221 382.333 43.9086 381.108 45.0981C379.883 46.2872 378.212 46.882 376.093 46.882C373.941 46.882 372.252 46.2872 371.028 45.0981C369.835 43.9086 369.239 42.4221 369.239 40.6383ZM427.485 95.6921V54.7114H439.502V108.328H428.182L427.485 95.6921ZM429.174 84.5427L433.197 84.4435C433.197 88.0443 432.799 91.3646 432.004 94.4039C431.21 97.41 429.985 100.036 428.33 102.283C426.676 104.496 424.557 106.231 421.975 107.486C419.392 108.708 416.297 109.32 412.689 109.32C410.074 109.32 407.674 108.94 405.489 108.18C403.303 107.42 401.417 106.247 399.828 104.661C398.271 103.076 397.064 101.011 396.203 98.4671C395.343 95.9234 394.911 92.8842 394.911 89.3493V54.7114H406.879V89.4485C406.879 91.3976 407.11 93.0328 407.574 94.3542C408.038 95.6427 408.667 96.6833 409.462 97.4762C410.256 98.269 411.182 98.8306 412.242 99.1611C413.301 99.4913 414.426 99.6564 415.619 99.6564C419.028 99.6564 421.71 98.9957 423.663 97.6743C425.648 96.3199 427.055 94.5029 427.883 92.2235C428.744 89.944 429.174 87.3839 429.174 84.5427ZM481.909 93.8092C481.909 92.6199 481.61 91.5462 481.015 90.5883C480.419 89.5971 479.278 88.7053 477.589 87.9124C475.934 87.1196 473.483 86.3927 470.239 85.732C467.392 85.1042 464.778 84.3611 462.394 83.502C460.044 82.61 458.025 81.5364 456.337 80.2811C454.648 79.0257 453.341 77.5391 452.413 75.8212C451.487 74.1034 451.023 72.1212 451.023 69.8748C451.023 67.6944 451.502 65.6298 452.462 63.6806C453.424 61.7314 454.797 60.0136 456.585 58.527C458.373 57.0405 460.54 55.8677 463.089 55.0086C465.672 54.1498 468.551 53.7204 471.729 53.7204C476.231 53.7204 480.089 54.4801 483.299 55.9998C486.542 57.4864 489.025 59.5182 490.748 62.0949C492.468 64.6386 493.331 67.5127 493.331 70.7171H481.362C481.362 69.2968 480.998 67.9753 480.271 66.7529C479.574 65.4976 478.515 64.4899 477.093 63.7301C475.669 62.9372 473.881 62.541 471.729 62.541C469.678 62.541 467.972 62.8712 466.614 63.532C465.29 64.1597 464.297 64.9855 463.636 66.0097C463.006 67.0339 462.693 68.157 462.693 69.3792C462.693 70.2712 462.858 71.0806 463.189 71.8075C463.553 72.5012 464.148 73.1454 464.977 73.7399C465.803 74.3015 466.93 74.8301 468.352 75.3257C469.809 75.8212 471.629 76.3003 473.816 76.7627C477.919 77.6218 481.445 78.7284 484.392 80.0828C487.371 81.4042 489.655 83.1221 491.244 85.2364C492.833 87.3177 493.627 89.9605 493.627 93.1649C493.627 95.5435 493.114 97.724 492.089 99.7061C491.095 101.655 489.638 103.356 487.718 104.81C485.799 106.231 483.498 107.337 480.816 108.13C478.167 108.923 475.189 109.32 471.879 109.32C467.013 109.32 462.89 108.461 459.515 106.743C456.138 104.992 453.572 102.762 451.818 100.053C450.095 97.3111 449.235 94.4699 449.235 91.5298H460.805C460.936 93.7432 461.551 95.5105 462.642 96.832C463.767 98.1204 465.159 99.0619 466.814 99.6564C468.502 100.218 470.239 100.499 472.028 100.499C474.178 100.499 475.983 100.218 477.441 99.6564C478.896 99.0619 480.004 98.269 480.767 97.2779C481.528 96.2539 481.909 95.0976 481.909 93.8092Z" fill="white"/>
</g>
</g>
<defs>
<clipPath id="clip0_371_3393">
<rect width="500" height="148" fill="white" transform="translate(0 0.5)"/>
</clipPath>
</defs>
</svg>
